Adsworth-72PT G1 XT0.ufo
<glyph name="exclam" format="2">
  <advance width="312"/>
  <unicode hex="0021"/>
  <outline>
    <contour>
      <point x="-29" y="292" type="line"/>
      <point x="-29" y="1500" type="line"/>
      <point x="341" y="1500" type="line"/>
      <point x="341" y="292" type="line"/>
    </contour>
    <contour>
      <point x="155.0" y="-39.0" type="line" smooth="yes"/>
      <point x="262.0" y="-39.0"/>
      <point x="373" y="64"/>
      <point x="373" y="147" type="qcurve" smooth="yes"/>
      <point x="373" y="159" type="line" smooth="yes"/>
      <point x="373" y="243"/>
      <point x="264.0" y="348.0"/>
      <point x="155.0" y="348" type="qcurve" smooth="yes"/>
      <point x="152" y="348" type="line" smooth="yes"/>
      <point x="49.0" y="348"/>
      <point x="-57" y="243"/>
      <point x="-57" y="159" type="qcurve" smooth="yes"/>
      <point x="-57" y="147" type="line" smooth="yes"/>
      <point x="-57" y="62"/>
      <point x="48.0" y="-39.0"/>
      <point x="152" y="-39.0" type="qcurve" smooth="yes"/>
    </contour>
  </outline>
</glyph>
<glyph name="quotedbl" format="2">
  <advance width="454"/>
  <unicode hex="0022"/>
  <outline>
    <contour>
      <point x="-66" y="852" type="line"/>
      <point x="-66" y="1500" type="line"/>
      <point x="267" y="1500" type="line"/>
      <point x="267" y="852" type="line"/>
    </contour>
    <contour>
      <point x="187" y="852" type="line"/>
      <point x="187" y="1500" type="line"/>
      <point x="520" y="1500" type="line"/>
      <point x="520" y="852" type="line"/>
    </contour>
  </outline>
</glyph>
<glyph name="numbersign" format="2">
  <advance width="642"/>
  <unicode hex="0023"/>
  <outline>
    <contour>
      <point x="-50" y="0" type="line"/>
      <point x="120" y="1500" type="line"/>
      <point x="394" y="1500" type="line"/>
      <point x="224" y="0" type="line"/>
    </contour>
    <contour>
      <point x="606" y="340" type="line"/>
      <point x="-34" y="340" type="line"/>
      <point x="-34" y="680" type="line"/>
      <point x="606" y="680" type="line"/>
    </contour>
    <contour>
      <point x="676" y="845" type="line"/>
      <point x="16" y="845" type="line"/>
      <point x="16" y="1185" type="line"/>
      <point x="676" y="1185" type="line"/>
    </contour>
    <contour>
      <point x="270" y="0" type="line"/>
      <point x="440" y="1500" type="line"/>
      <point x="714" y="1500" type="line"/>
      <point x="544" y="0" type="line"/>
    </contour>
  </outline>
</glyph>
<glyph name="hyphen" format="2">
  <advance width="700"/>
  <unicode hex="002D"/>
  <outline>
    <contour>
      <point x="679" y="594" type="line"/>
      <point x="19" y="594" type="line"/>
      <point x="19" y="905" type="line"/>
      <point x="679" y="905" type="line"/>
    </contour>
  </outline>
</glyph>
<glyph name="period" format="2">
  <advance width="430"/>
  <unicode hex="002E"/>
  <outline>
    <contour>
      <point x="212" y="-27" type="line" smooth="yes"/>
      <point x="303" y="-27"/>
      <point x="409" y="69"/>
      <point x="409" y="149" type="qcurve" smooth="yes"/>
      <point x="409" y="160" type="line" smooth="yes"/>
      <point x="409" y="237"/>
      <point x="306" y="335"/>
      <point x="212" y="335" type="qcurve" smooth="yes"/>
      <point x="209" y="335" type="line" smooth="yes"/>
      <point x="122" y="335"/>
      <point x="22" y="237"/>
      <point x="22" y="160" type="qcurve" smooth="yes"/>
      <point x="22" y="149" type="line" smooth="yes"/>
      <point x="22" y="69"/>
      <point x="122" y="-27"/>
      <point x="209" y="-27" type="qcurve" smooth="yes"/>
    </contour>
  </outline>
</glyph>
<glyph name="zero" format="2">
  <advance width="638"/>
  <unicode hex="0030"/>
  <outline>
    <contour>
      <point x="301" y="-15.0" type="line" smooth="yes"/>
      <point x="160.0" y="-15"/>
      <point x="43" y="165"/>
      <point x="43" y="353.0" type="qcurve" smooth="yes"/>
      <point x="43" y="1137.0" type="line" smooth="yes"/>
      <point x="43" y="1331"/>
      <point x="175.0" y="1504.0"/>
      <point x="300" y="1504.0" type="qcurve" smooth="yes"/>
      <point x="339" y="1504.0" type="line" smooth="yes"/>
      <point x="463.0" y="1504.0"/>
      <point x="595" y="1331"/>
      <point x="595" y="1137.0" type="qcurve" smooth="yes"/>
      <point x="595" y="353.0" type="line" smooth="yes"/>
      <point x="595" y="155"/>
      <point x="473.0" y="-15.0"/>
      <point x="340" y="-15.0" type="qcurve" smooth="yes"/>
    </contour>
    <contour>
      <point x="325.0" y="209" type="line" smooth="yes"/>
      <point x="278.0" y="209.0"/>
      <point x="187.0" y="96.0"/>
      <point x="187.0" y="144" type="qcurve" smooth="yes"/>
      <point x="187.0" y="1346" type="line" smooth="yes"/>
      <point x="187.0" y="1391.0"/>
      <point x="276.0" y="1267.0"/>
      <point x="325.0" y="1267" type="qcurve" smooth="yes"/>
      <point x="311.0" y="1267" type="line" smooth="yes"/>
      <point x="355.0" y="1267.0"/>
      <point x="451.0" y="1391.0"/>
      <point x="451.0" y="1346" type="qcurve" smooth="yes"/>
      <point x="451.0" y="144" type="line" smooth="yes"/>
      <point x="451.0" y="96.0"/>
      <point x="356.0" y="209"/>
      <point x="311.0" y="209" type="qcurve" smooth="yes"/>
    </contour>
  </outline>
</glyph>
<glyph name="one" format="2">
  <advance width="302"/>
  <unicode hex="0031"/>
  <outline>
    <contour>
      <point x="-32" y="0" type="line"/>
      <point x="-32" y="1500" type="line"/>
      <point x="334" y="1500" type="line"/>
      <point x="334" y="0" type="line"/>
    </contour>
  </outline>
</glyph>
<glyph name="two" format="2">
  <advance width="626"/>
  <unicode hex="0032"/>
  <outline>
    <contour>
      <point x="648" y="0.0" type="line"/>
      <point x="-14" y="0" type="line"/>
      <point x="-14.0" y="220" type="line"/>
      <point x="223.0" y="869" type="line" smooth="yes"/>
      <point x="234" y="916"/>
      <point x="309.0" y="1046.0"/>
      <point x="309" y="1106.0" type="qcurve" smooth="yes"/>
      <point x="309" y="1187.0" type="line" smooth="yes"/>
      <point x="309.0" y="1218.0"/>
      <point x="296.0" y="1234.0"/>
      <point x="317" y="1234.0" type="qcurve" smooth="yes"/>
      <point x="307" y="1234.0" type="line" smooth="yes"/>
      <point x="327.0" y="1234.0"/>
      <point x="328.0" y="1221.0"/>
      <point x="329" y="1179.0" type="qcurve" smooth="yes"/>
      <point x="329" y="1051.0" type="line"/>
      <point x="17" y="1040.0" type="line"/>
      <point x="15" y="1175.0" type="line" smooth="yes"/>
      <point x="11" y="1315"/>
      <point x="185.0" y="1510.0"/>
      <point x="297" y="1510.0" type="qcurve" smooth="yes"/>
      <point x="315" y="1510.0" type="line" smooth="yes"/>
      <point x="458.0" y="1510.0"/>
      <point x="647.0" y="1369.0"/>
      <point x="647.0" y="1216.0" type="qcurve" smooth="yes"/>
      <point x="647.0" y="1172.0" type="line" smooth="yes"/>
      <point x="647.0" y="1048.0"/>
      <point x="556" y="838"/>
      <point x="509" y="746.0" type="qcurve" smooth="yes"/>
      <point x="388" y="272.0" type="line"/>
      <point x="648" y="272.0" type="line"/>
    </contour>
  </outline>
</glyph>
<glyph name="three" format="2">
  <advance width="727"/>
  <unicode hex="0033"/>
  <outline>
    <contour>
      <point x="308" y="590" type="qcurve" smooth="yes"/>
      <point x="94" y="591" type="line"/>
      <point x="94" y="931" type="line"/>
      <point x="266" y="931" type="line" smooth="yes"/>
      <point x="334.0" y="931.0"/>
      <point x="366.0" y="962.0"/>
      <point x="366" y="1004" type="qcurve" smooth="yes"/>
      <point x="366" y="1136" type="line" smooth="yes"/>
      <point x="366" y="1168"/>
      <point x="354" y="1185"/>
      <point x="346" y="1185" type="qcurve" smooth="yes"/>
      <point x="343" y="1185" type="line" smooth="yes"/>
      <point x="335" y="1185"/>
      <point x="326.0" y="1171.0"/>
      <point x="326" y="1158" type="qcurve" smooth="yes"/>
      <point x="327" y="1009" type="line"/>
      <point x="12" y="1011" type="line"/>
      <point x="12" y="1194" type="line" smooth="yes"/>
      <point x="12" y="1347.0"/>
      <point x="205" y="1512"/>
      <point x="344" y="1512" type="qcurve" smooth="yes"/>
      <point x="366" y="1512" type="line" smooth="yes"/>
      <point x="512.0" y="1512.0"/>
      <point x="711" y="1367"/>
      <point x="711.0" y="1220" type="qcurve" smooth="yes"/>
      <point x="711" y="1100" type="line" smooth="yes"/>
      <point x="711" y="960"/>
      <point x="613" y="830"/>
      <point x="542" y="812" type="qcurve"/>
      <point x="627" y="779"/>
      <point x="721.0" y="646.0"/>
      <point x="721.0" y="510" type="qcurve" smooth="yes"/>
      <point x="721.0" y="340" type="line" smooth="yes"/>
      <point x="721" y="151"/>
      <point x="511" y="-19.0"/>
      <point x="359" y="-19.0" type="qcurve" smooth="yes"/>
      <point x="353" y="-19" type="line" smooth="yes"/>
      <point x="207.0" y="-19"/>
      <point x="7" y="146"/>
      <point x="6" y="309" type="qcurve" smooth="yes"/>
      <point x="5" y="519" type="line"/>
      <point x="341" y="519" type="line"/>
      <point x="341" y="305" type="line" smooth="yes"/>
      <point x="341" y="260"/>
      <point x="347" y="251"/>
      <point x="355" y="251" type="qcurve" smooth="yes"/>
      <point x="359" y="251" type="line" smooth="yes"/>
      <point x="370" y="251"/>
      <point x="378" y="280"/>
      <point x="378" y="370" type="qcurve" smooth="yes"/>
      <point x="378" y="515" type="line" smooth="yes"/>
      <point x="378.0" y="561.0"/>
      <point x="350" y="590"/>
    </contour>
  </outline>
</glyph>
<glyph name="four" format="2">
  <advance width="706"/>
  <unicode hex="0034"/>
  <outline>
    <contour>
      <point x="327" y="0" type="line"/>
      <point x="347" y="1500" type="line"/>
      <point x="679" y="1497" type="line"/>
      <point x="679" y="2" type="line"/>
    </contour>
    <contour>
      <point x="703" y="623" type="line"/>
      <point x="703" y="288" type="line"/>
      <point x="29" y="288" type="line"/>
      <point x="-17" y="620" type="line"/>
      <point x="346" y="1502" type="line"/>
      <point x="586" y="1390" type="line"/>
      <point x="251" y="625" type="line"/>
    </contour>
  </outline>
</glyph>
<glyph name="five" format="2">
  <advance width="744"/>
  <unicode hex="0035"/>
  <outline>
    <contour>
      <point x="519" y="1019" type="line" smooth="yes"/>
      <point x="623.0" y="1019.0"/>
      <point x="737.0" y="878.0"/>
      <point x="737" y="710" type="qcurve" smooth="yes"/>
      <point x="737.0" y="379" type="line" smooth="yes"/>
      <point x="737" y="156"/>
      <point x="555.0" y="-19.0"/>
      <point x="382" y="-19" type="qcurve" smooth="yes"/>
      <point x="370" y="-19.0" type="line" smooth="yes"/>
      <point x="188.0" y="-19"/>
      <point x="19" y="168"/>
      <point x="16" y="338" type="qcurve" smooth="yes"/>
      <point x="13" y="526" type="line"/>
      <point x="356" y="526.0" type="line"/>
      <point x="356" y="299" type="line" smooth="yes"/>
      <point x="356" y="278"/>
      <point x="360.0" y="258.0"/>
      <point x="369.0" y="258.0" type="qcurve" smooth="yes"/>
      <point x="376.0" y="258.0" type="line" smooth="yes"/>
      <point x="385.0" y="258.0"/>
      <point x="390" y="278"/>
      <point x="390.0" y="317.0" type="qcurve" smooth="yes"/>
      <point x="390.0" y="710.0" type="line" smooth="yes"/>
      <point x="390.0" y="739.0"/>
      <point x="383.0" y="754.0"/>
      <point x="374.0" y="754.0" type="qcurve" smooth="yes"/>
      <point x="369.0" y="754" type="line" smooth="yes"/>
      <point x="360.0" y="754.0"/>
      <point x="351.0" y="719"/>
      <point x="351.0" y="640" type="qcurve"/>
      <point x="12" y="642" type="line"/>
      <point x="37" y="1500" type="line"/>
      <point x="689" y="1500" type="line"/>
      <point x="689" y="1158" type="line"/>
      <point x="333" y="1158" type="line"/>
      <point x="331" y="935" type="line"/>
      <point x="353" y="986"/>
      <point x="441" y="1019"/>
      <point x="503" y="1019" type="qcurve" smooth="yes"/>
    </contour>
  </outline>
</glyph>
<glyph name="six" format="2">
  <advance width="673"/>
  <unicode hex="0036"/>
  <outline>
    <contour>
      <point x="400.0" y="500" type="qcurve"/>
      <point x="401.0" y="357" type="line" smooth="yes"/>
      <point x="413.0" y="320"/>
      <point x="368.0" y="220.0"/>
      <point x="359.0" y="220.0" type="qcurve" smooth="yes"/>
      <point x="366.0" y="220.0" type="line" smooth="yes"/>
      <point x="331.0" y="220.0"/>
      <point x="276" y="301"/>
      <point x="276.0" y="349" type="qcurve" smooth="yes"/>
      <point x="276.0" y="600" type="line" smooth="yes"/>
      <point x="276.0" y="659"/>
      <point x="312.0" y="740"/>
      <point x="348.0" y="740" type="qcurve" smooth="yes"/>
      <point x="342.0" y="740" type="line" smooth="yes"/>
      <point x="367.0" y="740"/>
      <point x="363" y="629"/>
      <point x="388.0" y="580" type="qcurve" smooth="yes"/>
      <point x="387.0" y="493" type="line"/>
      <point x="246" y="505.0" type="line"/>
      <point x="247" y="517.0" type="line" smooth="yes"/>
      <point x="263" y="714.0"/>
      <point x="411" y="933.0"/>
      <point x="471" y="933.0" type="qcurve" smooth="yes"/>
      <point x="476" y="933.0" type="line" smooth="yes"/>
      <point x="557" y="933.0"/>
      <point x="651" y="743.0"/>
      <point x="651" y="564.0" type="qcurve" smooth="yes"/>
      <point x="651" y="361.0" type="line" smooth="yes"/>
      <point x="651" y="197.0"/>
      <point x="505" y="-15.0"/>
      <point x="375" y="-15.0" type="qcurve" smooth="yes"/>
      <point x="365.0" y="-15.0" type="line" smooth="yes"/>
      <point x="203.0" y="-15.0"/>
      <point x="48.0" y="272"/>
      <point x="44.0" y="516.0" type="qcurve" smooth="yes"/>
      <point x="43.0" y="752" type="line" smooth="yes"/>
      <point x="37.0" y="1167"/>
      <point x="299.0" y="1519"/>
      <point x="533.0" y="1519" type="qcurve" smooth="yes"/>
      <point x="556" y="1519" type="line"/>
      <point x="556" y="1266" type="line"/>
      <point x="544" y="1265" type="line" smooth="yes"/>
      <point x="316" y="1256"/>
      <point x="408.0" y="875"/>
    </contour>
  </outline>
</glyph>
<glyph name="seven" format="2">
  <advance width="597"/>
  <unicode hex="0037"/>
  <outline>
    <contour>
      <point x="0" y="1500" type="line"/>
      <point x="591" y="1500" type="line"/>
      <point x="597" y="1146" type="line"/>
      <point x="445" y="0" type="line"/>
      <point x="50" y="0" type="line"/>
      <point x="232" y="1158" type="line"/>
      <point x="0" y="1158" type="line"/>
    </contour>
  </outline>
</glyph>
<glyph name="eight" format="2">
  <advance width="730"/>
  <unicode hex="0038"/>
  <outline>
    <contour>
      <point x="363" y="-19" type="line" smooth="yes"/>
      <point x="213" y="-19"/>
      <point x="6" y="158"/>
      <point x="6" y="360" type="qcurve" smooth="yes"/>
      <point x="6" y="494" type="line" smooth="yes"/>
      <point x="6" y="681"/>
      <point x="208.0" y="842.0"/>
      <point x="357" y="842" type="qcurve" smooth="yes"/>
      <point x="362" y="842" type="line" smooth="yes"/>
      <point x="516.0" y="842.0"/>
      <point x="724" y="681"/>
      <point x="724" y="494" type="qcurve" smooth="yes"/>
      <point x="724" y="362" type="line" smooth="yes"/>
      <point x="724" y="158"/>
      <point x="521" y="-19"/>
      <point x="368" y="-19" type="qcurve" smooth="yes"/>
    </contour>
    <contour>
      <point x="365" y="251" type="line" smooth="yes"/>
      <point x="376" y="251"/>
      <point x="388" y="289"/>
      <point x="388" y="393" type="qcurve" smooth="yes"/>
      <point x="388.0" y="643" type="line" smooth="yes"/>
      <point x="388.0" y="674.0"/>
      <point x="377.0" y="703.0"/>
      <point x="365.0" y="703" type="qcurve" smooth="yes"/>
      <point x="361" y="703.0" type="line" smooth="yes"/>
      <point x="349.0" y="703"/>
      <point x="342" y="675"/>
      <point x="342.0" y="643" type="qcurve" smooth="yes"/>
      <point x="342.0" y="383.0" type="line" smooth="yes"/>
      <point x="342" y="279"/>
      <point x="349" y="251.0"/>
      <point x="359" y="251.0" type="qcurve" smooth="yes"/>
    </contour>
    <contour>
      <point x="356.0" y="735" type="line" smooth="yes"/>
      <point x="202.0" y="735.0"/>
      <point x="32" y="920"/>
      <point x="32.0" y="1066" type="qcurve" smooth="yes"/>
      <point x="32.0" y="1191" type="line" smooth="yes"/>
      <point x="32" y="1363"/>
      <point x="223.0" y="1513"/>
      <point x="355.0" y="1513" type="qcurve" smooth="yes"/>
      <point x="360.0" y="1513" type="line" smooth="yes"/>
      <point x="498.0" y="1513"/>
      <point x="698" y="1363"/>
      <point x="698.0" y="1187" type="qcurve" smooth="yes"/>
      <point x="698.0" y="1041" type="line" smooth="yes"/>
      <point x="698.0" y="899.0"/>
      <point x="527.0" y="735.0"/>
      <point x="365.0" y="735" type="qcurve" smooth="yes"/>
    </contour>
    <contour>
      <point x="368" y="910.0" type="line" smooth="yes"/>
      <point x="378" y="910"/>
      <point x="389.0" y="930.0"/>
      <point x="389" y="953.0" type="qcurve" smooth="yes"/>
      <point x="389.0" y="1143" type="line" smooth="yes"/>
      <point x="389" y="1174"/>
      <point x="378.0" y="1196"/>
      <point x="368.0" y="1196" type="qcurve" smooth="yes"/>
      <point x="361.0" y="1196" type="line" smooth="yes"/>
      <point x="352.0" y="1196"/>
      <point x="341" y="1174"/>
      <point x="341.0" y="1143" type="qcurve" smooth="yes"/>
      <point x="341.0" y="953.0" type="line" smooth="yes"/>
      <point x="341.0" y="930.0"/>
      <point x="351" y="910"/>
      <point x="362" y="910.0" type="qcurve" smooth="yes"/>
    </contour>
  </outline>
</glyph>
<glyph name="nine" format="2">
  <advance width="729"/>
  <unicode hex="0039"/>
  <outline>
    <contour>
      <point x="375" y="602" type="qcurve"/>
      <point x="375" y="1148" type="line" smooth="yes"/>
      <point x="375" y="1168"/>
      <point x="368" y="1186"/>
      <point x="358" y="1186" type="qcurve" smooth="yes"/>
      <point x="353" y="1186" type="line" smooth="yes"/>
      <point x="343" y="1186"/>
      <point x="335" y="1168"/>
      <point x="335" y="1149" type="qcurve" smooth="yes"/>
      <point x="335" y="822" type="line" smooth="yes"/>
      <point x="335.0" y="800.0"/>
      <point x="346" y="783"/>
      <point x="361" y="783" type="qcurve" smooth="yes"/>
      <point x="369" y="783" type="line" smooth="yes"/>
      <point x="407" y="783"/>
      <point x="449" y="849"/>
      <point x="456" y="926" type="qcurve" smooth="yes"/>
      <point x="458" y="949" type="line"/>
      <point x="593" y="940" type="line"/>
      <point x="592" y="928" type="line" smooth="yes"/>
      <point x="576" y="731"/>
      <point x="441" y="534"/>
      <point x="324" y="534" type="qcurve" smooth="yes"/>
      <point x="317" y="534" type="line" smooth="yes"/>
      <point x="169" y="534"/>
      <point x="6" y="682.0"/>
      <point x="6" y="861" type="qcurve" smooth="yes"/>
      <point x="6" y="1134" type="line" smooth="yes"/>
      <point x="6" y="1298"/>
      <point x="172" y="1514"/>
      <point x="348" y="1514" type="qcurve" smooth="yes"/>
      <point x="360" y="1514" type="line" smooth="yes"/>
      <point x="547" y="1514"/>
      <point x="719" y="1321"/>
      <point x="719" y="1135" type="qcurve" smooth="yes"/>
      <point x="719" y="664" type="line" smooth="yes"/>
      <point x="719.0" y="291.0"/>
      <point x="476.0" y="0.0"/>
      <point x="236" y="0" type="qcurve" smooth="yes"/>
      <point x="87" y="0" type="line"/>
      <point x="87" y="325" type="line"/>
      <point x="173" y="325" type="line" smooth="yes"/>
      <point x="276" y="325"/>
      <point x="375" y="437"/>
    </contour>
  </outline>
</glyph>
<glyph name="colon" format="2">
  <advance width="450"/>
  <unicode hex="003A"/>
  <outline>
    <contour>
      <point x="223" y="-19.0" type="line" smooth="yes"/>
      <point x="309" y="-19.0"/>
      <point x="408" y="75"/>
      <point x="408" y="153.0" type="qcurve" smooth="yes"/>
      <point x="408" y="163" type="line" smooth="yes"/>
      <point x="408" y="240"/>
      <point x="311" y="336"/>
      <point x="223" y="336" type="qcurve" smooth="yes"/>
      <point x="220" y="336" type="line" smooth="yes"/>
      <point x="139" y="336"/>
      <point x="44" y="240"/>
      <point x="44" y="163" type="qcurve" smooth="yes"/>
      <point x="44" y="153.0" type="line" smooth="yes"/>
      <point x="44" y="74"/>
      <point x="137" y="-19.0"/>
      <point x="220" y="-19.0" type="qcurve" smooth="yes"/>
    </contour>
    <contour>
      <point x="221" y="697.0" type="line" smooth="yes"/>
      <point x="307" y="697.0"/>
      <point x="407" y="791"/>
      <point x="407" y="869" type="qcurve" smooth="yes"/>
      <point x="407" y="879" type="line" smooth="yes"/>
      <point x="407" y="956"/>
      <point x="309" y="1052"/>
      <point x="221" y="1052" type="qcurve" smooth="yes"/>
      <point x="218" y="1052" type="line" smooth="yes"/>
      <point x="137" y="1052"/>
      <point x="42" y="956"/>
      <point x="42" y="879" type="qcurve" smooth="yes"/>
      <point x="42" y="869" type="line" smooth="yes"/>
      <point x="42" y="790"/>
      <point x="135" y="697.0"/>
      <point x="218" y="697.0" type="qcurve" smooth="yes"/>
    </contour>
  </outline>
</glyph>
<glyph name="at" format="2">
  <advance width="1287"/>
  <unicode hex="0040"/>
  <outline>
    <contour>
      <point x="805" y="855" type="qcurve" smooth="yes"/>
      <point x="768" y="567" type="line" smooth="yes"/>
      <point x="753" y="450"/>
      <point x="635" y="311"/>
      <point x="533" y="313" type="qcurve" smooth="yes"/>
      <point x="529" y="313" type="line" smooth="yes"/>
      <point x="409.0" y="315"/>
      <point x="313" y="481"/>
      <point x="346" y="678" type="qcurve" smooth="yes"/>
      <point x="370" y="853" type="line" smooth="yes"/>
      <point x="392" y="980"/>
      <point x="537.0" y="1161.0"/>
      <point x="650" y="1158" type="qcurve" smooth="yes"/>
      <point x="654" y="1158" type="line" smooth="yes"/>
      <point x="738.0" y="1156.0"/>
      <point x="822" y="989"/>
    </contour>
    <contour>
      <point x="736" y="785.0" type="line" smooth="yes"/>
      <point x="748.0" y="884.0"/>
      <point x="706" y="1017.0"/>
      <point x="698" y="1019.0" type="qcurve" smooth="yes"/>
      <point x="696" y="1019.0" type="line" smooth="yes"/>
      <point x="696" y="1020.0"/>
      <point x="608" y="877.0"/>
      <point x="604" y="817.0" type="qcurve" smooth="yes"/>
      <point x="581" y="643.0" type="line" smooth="yes"/>
      <point x="567" y="546.0"/>
      <point x="583" y="415.0"/>
      <point x="653" y="415.0" type="qcurve" smooth="yes"/>
      <point x="655" y="415.0" type="line" smooth="yes"/>
      <point x="660" y="415.0"/>
      <point x="712" y="585.0"/>
      <point x="722" y="667.0" type="qcurve" smooth="yes"/>
    </contour>
    <contour>
      <point x="763" y="632" type="qcurve" smooth="yes"/>
      <point x="819" y="1133" type="line"/>
      <point x="1004" y="1131" type="line"/>
      <point x="929" y="575" type="line" smooth="yes"/>
      <point x="921" y="519"/>
      <point x="944" y="464.0"/>
      <point x="977" y="464" type="qcurve" smooth="yes"/>
      <point x="1043" y="464"/>
      <point x="1152.0" y="620"/>
      <point x="1152.0" y="784.0" type="qcurve" smooth="yes"/>
      <point x="1152.0" y="1037"/>
      <point x="902.0" y="1384.0"/>
      <point x="681.0" y="1384.0" type="qcurve" smooth="yes"/>
      <point x="466.0" y="1384.0"/>
      <point x="196.0" y="1008.0"/>
      <point x="196.0" y="700.0" type="qcurve" smooth="yes"/>
      <point x="196.0" y="370.0"/>
      <point x="460" y="10"/>
      <point x="668.0" y="10.0" type="qcurve" smooth="yes"/>
      <point x="803.0" y="10.0"/>
      <point x="1046.0" y="145.0"/>
      <point x="1087.0" y="197.0" type="qcurve"/>
      <point x="1174" y="98.0" type="line"/>
      <point x="1126" y="33.0"/>
      <point x="883" y="-102.0"/>
      <point x="659" y="-102.0" type="qcurve" smooth="yes"/>
      <point x="375" y="-102.0"/>
      <point x="0" y="322.0"/>
      <point x="0" y="715.0" type="qcurve" smooth="yes"/>
      <point x="0" y="1077.0"/>
      <point x="378" y="1524.0"/>
      <point x="676" y="1524.0" type="qcurve" smooth="yes"/>
      <point x="975" y="1524.0"/>
      <point x="1332.0" y="1117.0"/>
      <point x="1332.0" y="806.0" type="qcurve" smooth="yes"/>
      <point x="1332.0" y="618"/>
      <point x="1119.0" y="319.0"/>
      <point x="922" y="319" type="qcurve" smooth="yes"/>
      <point x="793" y="319"/>
      <point x="741" y="474"/>
    </contour>
  </outline>
</glyph>
<glyph name="A" format="2">
  <advance width="710"/>
  <unicode hex="0041"/>
  <outline>
    <contour>
      <point x="470" y="268" type="line"/>
      <point x="125" y="268" type="line"/>
      <point x="125" y="487" type="line"/>
      <point x="470" y="487" type="line"/>
    </contour>
    <contour>
      <point x="607" y="1500" type="line"/>
      <point x="725" y="0" type="line"/>
      <point x="358" y="0" type="line"/>
      <point x="340" y="837" type="line"/>
      <point x="329" y="837" type="line"/>
      <point x="309" y="0" type="line"/>
      <point x="-15" y="0" type="line"/>
      <point x="87" y="1500" type="line"/>
    </contour>
  </outline>
</glyph>
<glyph name="B" format="2">
  <advance width="749"/>
  <unicode hex="0042"/>
  <outline>
    <contour>
      <point x="14" y="0" type="line"/>
      <point x="14" y="1500" type="line"/>
      <point x="349" y="1500" type="line"/>
      <point x="349" y="0" type="line"/>
    </contour>
    <contour>
      <point x="561" y="786" type="line"/>
      <point x="633" y="779"/>
      <point x="745" y="648"/>
      <point x="745" y="494" type="qcurve" smooth="yes"/>
      <point x="745" y="326" type="line" smooth="yes"/>
      <point x="745" y="166"/>
      <point x="579" y="0"/>
      <point x="445" y="0" type="qcurve" smooth="yes"/>
      <point x="304" y="0" type="line"/>
      <point x="304" y="339" type="line"/>
      <point x="360" y="339" type="line" smooth="yes"/>
      <point x="382" y="339"/>
      <point x="397" y="360"/>
      <point x="397" y="427" type="qcurve" smooth="yes"/>
      <point x="397" y="555" type="line" smooth="yes"/>
      <point x="397" y="592"/>
      <point x="385" y="613"/>
      <point x="363" y="613" type="qcurve" smooth="yes"/>
      <point x="304" y="613" type="line"/>
      <point x="304" y="913" type="line"/>
      <point x="364" y="913" type="line" smooth="yes"/>
      <point x="383" y="913"/>
      <point x="394" y="930"/>
      <point x="394" y="957" type="qcurve" smooth="yes"/>
      <point x="394" y="1099" type="line" smooth="yes"/>
      <point x="394" y="1132"/>
      <point x="376" y="1150"/>
      <point x="365" y="1150" type="qcurve" smooth="yes"/>
      <point x="304" y="1150" type="line"/>
      <point x="304" y="1500" type="line"/>
      <point x="434" y="1500" type="line" smooth="yes"/>
      <point x="575" y="1500"/>
      <point x="732" y="1354"/>
      <point x="732" y="1226" type="qcurve" smooth="yes"/>
      <point x="732" y="1038" type="line" smooth="yes"/>
      <point x="732" y="895"/>
      <point x="630" y="802"/>
      <point x="561" y="792" type="qcurve"/>
    </contour>
  </outline>
</glyph>
<glyph name="C" format="2">
  <advance width="736"/>
  <unicode hex="0043"/>
  <outline>
    <contour>
      <point x="381" y="342" type="line" smooth="yes"/>
      <point x="385" y="342"/>
      <point x="394" y="347"/>
      <point x="394" y="374" type="qcurve" smooth="yes"/>
      <point x="396" y="737" type="line"/>
      <point x="724" y="722" type="line"/>
      <point x="721" y="283" type="line" smooth="yes"/>
      <point x="720" y="148"/>
      <point x="520" y="-19"/>
      <point x="388" y="-19" type="qcurve" smooth="yes"/>
      <point x="374" y="-19" type="line" smooth="yes"/>
      <point x="215" y="-19"/>
      <point x="11" y="188"/>
      <point x="11" y="367" type="qcurve" smooth="yes"/>
      <point x="11" y="1140" type="line" smooth="yes"/>
      <point x="11" y="1328"/>
      <point x="224" y="1522"/>
      <point x="376" y="1522" type="qcurve" smooth="yes"/>
      <point x="385" y="1522" type="line" smooth="yes"/>
      <point x="533" y="1522"/>
      <point x="728" y="1324"/>
      <point x="732" y="1161" type="qcurve" smooth="yes"/>
      <point x="731" y="817" type="line"/>
      <point x="394" y="787" type="line"/>
      <point x="394" y="1072" type="line" smooth="yes"/>
      <point x="394.0" y="1111.0"/>
      <point x="390" y="1128"/>
      <point x="383" y="1128" type="qcurve" smooth="yes"/>
      <point x="379" y="1128" type="line" smooth="yes"/>
      <point x="374" y="1128"/>
      <point x="369.0" y="1112.0"/>
      <point x="369" y="1064" type="qcurve" smooth="yes"/>
      <point x="369" y="375" type="line" smooth="yes"/>
      <point x="369" y="351"/>
      <point x="374" y="342"/>
      <point x="379" y="342" type="qcurve" smooth="yes"/>
    </contour>
  </outline>
</glyph>
<glyph name="D" format="2">
  <advance width="763"/>
  <unicode hex="0044"/>
  <outline>
    <contour>
      <point x="14" y="0" type="line"/>
      <point x="14" y="1500" type="line"/>
      <point x="368" y="1500" type="line"/>
      <point x="368" y="0" type="line"/>
    </contour>
    <contour>
      <point x="369" y="352" type="line" smooth="yes"/>
      <point x="383" y="352"/>
      <point x="393" y="369"/>
      <point x="393" y="401" type="qcurve" smooth="yes"/>
      <point x="393" y="1096" type="line" smooth="yes"/>
      <point x="393.0" y="1112.0"/>
      <point x="386" y="1116"/>
      <point x="380" y="1122" type="qcurve" smooth="yes"/>
      <point x="281" y="1122" type="line"/>
      <point x="281" y="1500" type="line"/>
      <point x="431" y="1500" type="line" smooth="yes"/>
      <point x="593" y="1500"/>
      <point x="752" y="1303"/>
      <point x="752" y="1120" type="qcurve" smooth="yes"/>
      <point x="752" y="385" type="line" smooth="yes"/>
      <point x="752" y="197"/>
      <point x="591" y="0"/>
      <point x="454" y="0" type="qcurve" smooth="yes"/>
      <point x="281" y="0" type="line"/>
      <point x="281" y="352" type="line"/>
    </contour>
  </outline>
</glyph>
<glyph name="E" format="2">
  <advance width="614"/>
  <unicode hex="0045"/>
  <outline>
    <contour>
      <point x="14" y="0" type="line"/>
      <point x="14" y="1500" type="line"/>
      <point x="384" y="1500" type="line"/>
      <point x="384" y="0" type="line"/>
    </contour>
    <contour>
      <point x="570" y="582" type="line"/>
      <point x="265" y="582" type="line"/>
      <point x="265" y="956" type="line"/>
      <point x="570" y="956" type="line"/>
    </contour>
    <contour>
      <point x="610" y="1106" type="line"/>
      <point x="265" y="1106" type="line"/>
      <point x="265" y="1500" type="line"/>
      <point x="610" y="1500" type="line"/>
    </contour>
    <contour>
      <point x="610" y="0" type="line"/>
      <point x="265" y="0" type="line"/>
      <point x="265" y="394" type="line"/>
      <point x="610" y="394" type="line"/>
    </contour>
  </outline>
</glyph>
<glyph name="F" format="2">
  <advance width="540"/>
  <unicode hex="0046"/>
  <outline>
    <contour>
      <point x="14" y="0" type="line"/>
      <point x="14" y="1500" type="line"/>
      <point x="384" y="1500" type="line"/>
      <point x="384" y="0" type="line"/>
    </contour>
    <contour>
      <point x="530" y="555" type="line"/>
      <point x="224" y="555" type="line"/>
      <point x="224" y="939" type="line"/>
      <point x="530" y="939" type="line"/>
    </contour>
    <contour>
      <point x="540" y="1106" type="line"/>
      <point x="224" y="1106" type="line"/>
      <point x="224" y="1500" type="line"/>
      <point x="540" y="1500" type="line"/>
    </contour>
  </outline>
</glyph>
<glyph name="G" format="2">
  <advance width="719"/>
  <unicode hex="0047"/>
  <outline>
    <contour>
      <point x="384" y="323" type="line" smooth="yes"/>
      <point x="402" y="323"/>
      <point x="410" y="334"/>
      <point x="409" y="354" type="qcurve" smooth="yes"/>
      <point x="409" y="520" type="line"/>
      <point x="378" y="520" type="line"/>
      <point x="378" y="835" type="line"/>
      <point x="715" y="835" type="line"/>
      <point x="712" y="279" type="line" smooth="yes"/>
      <point x="711" y="148"/>
      <point x="544" y="-16"/>
      <point x="381" y="-16" type="qcurve" smooth="yes"/>
      <point x="362" y="-16" type="line" smooth="yes"/>
      <point x="204" y="-16"/>
      <point x="11" y="185"/>
      <point x="11" y="371" type="qcurve" smooth="yes"/>
      <point x="11" y="1112" type="line" smooth="yes"/>
      <point x="11" y="1280"/>
      <point x="191" y="1523"/>
      <point x="366" y="1523" type="qcurve" smooth="yes"/>
      <point x="380" y="1523" type="line" smooth="yes"/>
      <point x="517" y="1523"/>
      <point x="708" y="1354"/>
      <point x="709" y="1211" type="qcurve" smooth="yes"/>
      <point x="711" y="916" type="line"/>
      <point x="395" y="866" type="line"/>
      <point x="395" y="1096" type="line" smooth="yes"/>
      <point x="395.0" y="1131.0"/>
      <point x="388" y="1148"/>
      <point x="381" y="1148" type="qcurve" smooth="yes"/>
      <point x="377" y="1148" type="line" smooth="yes"/>
      <point x="370" y="1148"/>
      <point x="365.0" y="1130.0"/>
      <point x="365" y="1107" type="qcurve" smooth="yes"/>
      <point x="365" y="345" type="line" smooth="yes"/>
      <point x="365" y="332"/>
      <point x="372" y="323"/>
      <point x="381" y="323" type="qcurve" smooth="yes"/>
    </contour>
  </outline>
</glyph>
<glyph name="H" format="2">
  <advance width="762"/>
  <unicode hex="0048"/>
  <outline>
    <contour>
      <point x="14" y="0" type="line"/>
      <point x="14" y="1500" type="line"/>
      <point x="366" y="1500" type="line"/>
      <point x="366" y="0" type="line"/>
    </contour>
    <contour>
      <point x="396" y="0" type="line"/>
      <point x="396" y="1500" type="line"/>
      <point x="748" y="1500" type="line"/>
      <point x="748" y="0" type="line"/>
    </contour>
    <contour>
      <point x="526" y="574" type="line"/>
      <point x="236" y="574" type="line"/>
      <point x="236" y="954" type="line"/>
      <point x="526" y="954" type="line"/>
    </contour>
  </outline>
</glyph>
<glyph name="I" format="2">
  <advance width="418"/>
  <unicode hex="0049"/>
  <outline>
    <contour>
      <point x="15" y="0" type="line"/>
      <point x="15" y="1500" type="line"/>
      <point x="403" y="1500" type="line"/>
      <point x="403" y="0" type="line"/>
    </contour>
    <contour>
      <point x="182" y="0" type="line"/>
      <point x="182" y="294" type="line"/>
      <point x="217" y="294" type="line"/>
      <point x="217" y="0" type="line"/>
    </contour>
    <contour>
      <point x="186" y="1206" type="line"/>
      <point x="186" y="1500" type="line"/>
      <point x="221" y="1500" type="line"/>
      <point x="221" y="1206" type="line"/>
    </contour>
  </outline>
</glyph>
<glyph name="J" format="2">
  <advance width="736"/>
  <unicode hex="004A"/>
  <outline>
    <contour>
      <point x="724" y="351" type="line" smooth="yes"/>
      <point x="724" y="183"/>
      <point x="538" y="-7"/>
      <point x="338" y="-7" type="qcurve" smooth="yes"/>
      <point x="327" y="-7" type="line" smooth="yes"/>
      <point x="173" y="-7"/>
      <point x="3" y="170"/>
      <point x="4" y="326" type="qcurve" smooth="yes"/>
      <point x="6" y="522" type="line"/>
      <point x="335" y="510" type="line"/>
      <point x="335" y="332" type="line" smooth="yes"/>
      <point x="335" y="320"/>
      <point x="347" y="306"/>
      <point x="353" y="306" type="qcurve" smooth="yes"/>
      <point x="358" y="306" type="line" smooth="yes"/>
      <point x="365" y="306"/>
      <point x="372" y="319"/>
      <point x="372" y="332" type="qcurve" smooth="yes"/>
      <point x="372" y="1510" type="line"/>
      <point x="724" y="1500" type="line"/>
    </contour>
  </outline>
</glyph>
<glyph name="K" format="2">
  <advance width="735"/>
  <unicode hex="004B"/>
  <outline>
    <contour>
      <point x="14" y="0" type="line"/>
      <point x="14" y="1500" type="line"/>
      <point x="357" y="1500" type="line"/>
      <point x="357" y="0" type="line"/>
    </contour>
    <contour>
      <point x="333" y="834" type="line"/>
      <point x="390" y="966" type="line"/>
      <point x="410" y="1500" type="line"/>
      <point x="742" y="1500" type="line"/>
      <point x="660" y="638" type="line"/>
      <point x="492" y="625" type="line"/>
      <point x="344" y="469" type="line"/>
    </contour>
    <contour>
      <point x="366" y="675" type="line"/>
      <point x="642" y="1083" type="line"/>
      <point x="755" y="0" type="line"/>
      <point x="406" y="0" type="line"/>
    </contour>
  </outline>
</glyph>
<glyph name="L" format="2">
  <advance width="539"/>
  <unicode hex="004C"/>
  <outline>
    <contour>
      <point x="14" y="0" type="line"/>
      <point x="14" y="1500" type="line"/>
      <point x="390" y="1500" type="line"/>
      <point x="390" y="0" type="line"/>
    </contour>
    <contour>
      <point x="535" y="0" type="line"/>
      <point x="227" y="0" type="line"/>
      <point x="227" y="394" type="line"/>
      <point x="535" y="394" type="line"/>
    </contour>
  </outline>
</glyph>
<glyph name="M" format="2">
  <advance width="968"/>
  <unicode hex="004D"/>
  <outline>
    <contour>
      <point x="14" y="0" type="line"/>
      <point x="24" y="1500" type="line"/>
      <point x="408" y="1500" type="line"/>
      <point x="484" y="921" type="line"/>
      <point x="486" y="921" type="line"/>
      <point x="560" y="1500" type="line"/>
      <point x="944" y="1500" type="line"/>
      <point x="954" y="0" type="line"/>
      <point x="654" y="0" type="line"/>
      <point x="654" y="825" type="line"/>
      <point x="607" y="0" type="line"/>
      <point x="355" y="0" type="line"/>
      <point x="308" y="825" type="line"/>
      <point x="308" y="0" type="line"/>
    </contour>
  </outline>
</glyph>
<glyph name="N" format="2">
  <advance width="731"/>
  <unicode hex="004E"/>
  <outline>
    <contour>
      <point x="14" y="0" type="line"/>
      <point x="14" y="1500" type="line"/>
      <point x="332" y="1500" type="line"/>
      <point x="385" y="897" type="line"/>
      <point x="385" y="1500" type="line"/>
      <point x="717" y="1500" type="line"/>
      <point x="717" y="0" type="line"/>
      <point x="375" y="0" type="line"/>
      <point x="375" y="368" type="line"/>
      <point x="334" y="618" type="line"/>
      <point x="334" y="0" type="line"/>
    </contour>
  </outline>
</glyph>
<glyph name="P" format="2">
  <advance width="759"/>
  <unicode hex="0050"/>
  <outline>
    <contour>
      <point x="14" y="0" type="line"/>
      <point x="14" y="1500" type="line"/>
      <point x="384" y="1500" type="line"/>
      <point x="384" y="0" type="line"/>
    </contour>
    <contour>
      <point x="427" y="483" type="qcurve" smooth="yes"/>
      <point x="357" y="483" type="line"/>
      <point x="357" y="795" type="line"/>
      <point x="399" y="795" type="line" smooth="yes"/>
      <point x="419" y="795"/>
      <point x="426" y="810"/>
      <point x="426" y="874" type="qcurve" smooth="yes"/>
      <point x="426" y="1064" type="line" smooth="yes"/>
      <point x="426.0" y="1108.0"/>
      <point x="420" y="1156"/>
      <point x="403" y="1152" type="qcurve" smooth="yes"/>
      <point x="357" y="1152" type="line"/>
      <point x="357" y="1500" type="line"/>
      <point x="476" y="1500" type="line" smooth="yes"/>
      <point x="628" y="1500"/>
      <point x="755" y="1343"/>
      <point x="755" y="1219" type="qcurve" smooth="yes"/>
      <point x="755" y="774" type="line" smooth="yes"/>
      <point x="755" y="625"/>
      <point x="603" y="480"/>
    </contour>
  </outline>
</glyph>
<glyph name="Q" format="2">
  <advance width="763"/>
  <unicode hex="0051"/>
  <outline>
    <contour>
      <point x="381" y="-18.0" type="line" smooth="yes"/>
      <point x="219" y="-18"/>
      <point x="11" y="160.0"/>
      <point x="11.0" y="336.0" type="qcurve" smooth="yes"/>
      <point x="11.0" y="1151.0" type="line" smooth="yes"/>
      <point x="11" y="1335"/>
      <point x="225" y="1523"/>
      <point x="379" y="1523.0" type="qcurve" smooth="yes"/>
      <point x="381" y="1523.0" type="line" smooth="yes"/>
      <point x="552" y="1523"/>
      <point x="752" y="1335"/>
      <point x="752" y="1170.0" type="qcurve" smooth="yes"/>
      <point x="752" y="324.0" type="line" smooth="yes"/>
      <point x="752.0" y="160.0"/>
      <point x="554" y="-18"/>
      <point x="383" y="-18.0" type="qcurve" smooth="yes"/>
    </contour>
    <contour>
      <point x="382.0" y="342" type="line" smooth="yes"/>
      <point x="388" y="342"/>
      <point x="394.0" y="348.0"/>
      <point x="394.0" y="375" type="qcurve" smooth="yes"/>
      <point x="394" y="1053.0" type="line" smooth="yes"/>
      <point x="394" y="1123"/>
      <point x="389" y="1138"/>
      <point x="384" y="1138.0" type="qcurve" smooth="yes"/>
      <point x="379" y="1138.0" type="line" smooth="yes"/>
      <point x="375" y="1138"/>
      <point x="369" y="1123"/>
      <point x="369" y="1054.0" type="qcurve" smooth="yes"/>
      <point x="369.0" y="375" type="line" smooth="yes"/>
      <point x="369.0" y="348.0"/>
      <point x="375" y="342"/>
      <point x="379.0" y="342" type="qcurve" smooth="yes"/>
    </contour>
    <contour>
      <point x="303" y="238" type="line"/>
      <point x="766" y="143" type="line"/>
      <point x="766" y="-122" type="line"/>
      <point x="304" y="8" type="line"/>
    </contour>
  </outline>
</glyph>
<glyph name="R" format="2">
  <advance width="784"/>
  <unicode hex="0052"/>
  <outline>
    <contour>
      <point x="24" y="0" type="line"/>
      <point x="24" y="1500" type="line"/>
      <point x="360" y="1500" type="line"/>
      <point x="360" y="0" type="line"/>
    </contour>
    <contour>
      <point x="480" y="563" type="qcurve" smooth="yes"/>
      <point x="330" y="563" type="line"/>
      <point x="330" y="858" type="line"/>
      <point x="380" y="858" type="line" smooth="yes"/>
      <point x="395" y="858"/>
      <point x="413.0" y="872.0"/>
      <point x="413" y="884" type="qcurve" smooth="yes"/>
      <point x="413" y="1104" type="line" smooth="yes"/>
      <point x="413" y="1129"/>
      <point x="391.0" y="1148.0"/>
      <point x="374" y="1148" type="qcurve" smooth="yes"/>
      <point x="330" y="1148" type="line"/>
      <point x="330" y="1500" type="line"/>
      <point x="507" y="1500" type="line" smooth="yes"/>
      <point x="621" y="1500"/>
      <point x="766" y="1330"/>
      <point x="766" y="1202" type="qcurve" smooth="yes"/>
      <point x="766" y="818" type="line" smooth="yes"/>
      <point x="766.0" y="713.0"/>
      <point x="628" y="553"/>
    </contour>
    <contour>
      <point x="700" y="689" type="line"/>
      <point x="792" y="0" type="line"/>
      <point x="434" y="0" type="line"/>
      <point x="377" y="590" type="line"/>
    </contour>
  </outline>
</glyph>
<glyph name="S" format="2">
  <advance width="742"/>
  <unicode hex="0053"/>
  <outline>
    <contour>
      <point x="374" y="474" type="line" smooth="yes"/>
      <point x="374.0" y="515"/>
      <point x="356" y="554"/>
      <point x="238" y="614" type="qcurve" smooth="yes"/>
      <point x="103.0" y="682.0"/>
      <point x="6" y="853.0"/>
      <point x="6" y="1019" type="qcurve" smooth="yes"/>
      <point x="6" y="1140" type="line" smooth="yes"/>
      <point x="6" y="1335"/>
      <point x="181" y="1523"/>
      <point x="370" y="1523" type="qcurve" smooth="yes"/>
      <point x="384" y="1523" type="line" smooth="yes"/>
      <point x="547.0" y="1523.0"/>
      <point x="727.0" y="1355.0"/>
      <point x="727" y="1241" type="qcurve" smooth="yes"/>
      <point x="727" y="1007" type="line"/>
      <point x="402" y="1007" type="line"/>
      <point x="402" y="1117" type="line" smooth="yes"/>
      <point x="402" y="1136"/>
      <point x="393" y="1154"/>
      <point x="382" y="1154" type="qcurve" smooth="yes"/>
      <point x="373" y="1154" type="line" smooth="yes"/>
      <point x="363" y="1154"/>
      <point x="354" y="1137"/>
      <point x="354" y="1122" type="qcurve" smooth="yes"/>
      <point x="354" y="1053" type="line" smooth="yes"/>
      <point x="354.0" y="1021.0"/>
      <point x="379" y="993"/>
      <point x="499" y="938" type="qcurve" smooth="yes"/>
      <point x="653" y="867"/>
      <point x="737.0" y="685"/>
      <point x="737" y="520" type="qcurve" smooth="yes"/>
      <point x="737" y="372" type="line" smooth="yes"/>
      <point x="737" y="175"/>
      <point x="543" y="-19"/>
      <point x="385" y="-19" type="qcurve" smooth="yes"/>
      <point x="365" y="-19.0" type="line" smooth="yes"/>
      <point x="205" y="-19"/>
      <point x="8" y="164"/>
      <point x="7" y="321" type="qcurve" smooth="yes"/>
      <point x="5" y="534" type="line"/>
      <point x="330" y="532" type="line"/>
      <point x="330" y="372" type="line" smooth="yes"/>
      <point x="330" y="357"/>
      <point x="336" y="344.0"/>
      <point x="349" y="344" type="qcurve" smooth="yes"/>
      <point x="360" y="344" type="line" smooth="yes"/>
      <point x="370" y="344.0"/>
      <point x="374" y="364"/>
      <point x="374" y="376" type="qcurve" smooth="yes"/>
    </contour>
  </outline>
</glyph>
<glyph name="T" format="2">
  <advance width="582"/>
  <unicode hex="0054"/>
  <outline>
    <contour>
      <point x="99" y="0" type="line"/>
      <point x="99" y="1460" type="line"/>
      <point x="483" y="1460" type="line"/>
      <point x="483" y="0" type="line"/>
    </contour>
    <contour>
      <point x="586" y="1106" type="line"/>
      <point x="-4" y="1106" type="line"/>
      <point x="-4" y="1500" type="line"/>
      <point x="586" y="1500" type="line"/>
    </contour>
  </outline>
</glyph>
<glyph name="U" format="2">
  <advance width="731"/>
  <unicode hex="0055"/>
  <outline>
    <contour>
      <point x="10" y="1500" type="line"/>
      <point x="338" y="1500" type="line"/>
      <point x="338" y="369" type="line" smooth="yes"/>
      <point x="338" y="326"/>
      <point x="341" y="309"/>
      <point x="351" y="309" type="qcurve" smooth="yes"/>
      <point x="355" y="309" type="line" smooth="yes"/>
      <point x="366" y="309"/>
      <point x="368.0" y="327.0"/>
      <point x="368" y="364" type="qcurve" smooth="yes"/>
      <point x="367" y="1500" type="line"/>
      <point x="721" y="1500" type="line"/>
      <point x="713" y="295" type="line" smooth="yes"/>
      <point x="711" y="144"/>
      <point x="540" y="-9"/>
      <point x="378" y="-9" type="qcurve" smooth="yes"/>
      <point x="343" y="-9" type="line" smooth="yes"/>
      <point x="221" y="-9"/>
      <point x="10" y="133"/>
      <point x="10" y="300" type="qcurve" smooth="yes"/>
    </contour>
  </outline>
</glyph>
<glyph name="V" format="2">
  <advance width="710"/>
  <unicode hex="0056"/>
  <outline>
    <contour>
      <point x="121" y="0" type="line"/>
      <point x="-15" y="1500" type="line"/>
      <point x="336.0" y="1500" type="line"/>
      <point x="378.0" y="766" type="line"/>
      <point x="407.0" y="1500" type="line"/>
      <point x="714" y="1500" type="line"/>
      <point x="581" y="0" type="line"/>
    </contour>
  </outline>
</glyph>
<glyph name="W" format="2">
  <advance width="1002"/>
  <unicode hex="0057"/>
  <outline>
    <contour>
      <point x="81" y="0" type="line"/>
      <point x="-4" y="1500" type="line"/>
      <point x="335" y="1500" type="line"/>
      <point x="360" y="850" type="line"/>
      <point x="379" y="1500" type="line"/>
      <point x="650" y="1500" type="line"/>
      <point x="668" y="850" type="line"/>
      <point x="694" y="1500" type="line"/>
      <point x="996" y="1500" type="line"/>
      <point x="911" y="0" type="line"/>
      <point x="535.0" y="0.0" type="line"/>
      <point x="493.0" y="576" type="line"/>
      <point x="486.0" y="576" type="line"/>
      <point x="457.0" y="0.0" type="line"/>
    </contour>
  </outline>
</glyph>
<glyph name="X" format="2">
  <advance width="720"/>
  <unicode hex="0058"/>
  <outline>
    <contour>
      <point x="-10" y="0" type="line"/>
      <point x="149" y="914" type="line"/>
      <point x="353" y="912" type="line"/>
      <point x="417" y="1500" type="line"/>
      <point x="732" y="1500" type="line"/>
      <point x="583" y="624" type="line"/>
      <point x="377" y="622" type="line"/>
      <point x="305" y="0" type="line"/>
    </contour>
    <contour>
      <point x="381" y="0" type="line"/>
      <point x="247" y="707" type="line"/>
      <point x="141" y="712" type="line"/>
      <point x="-20" y="1500" type="line"/>
      <point x="362" y="1500" type="line"/>
      <point x="456" y="859" type="line"/>
      <point x="572" y="854" type="line"/>
      <point x="740" y="0" type="line"/>
    </contour>
  </outline>
</glyph>
<glyph name="Y" format="2">
  <advance width="650"/>
  <unicode hex="0059"/>
  <outline>
    <contour>
      <point x="135" y="500" type="line"/>
      <point x="-50" y="1500" type="line"/>
      <point x="294" y="1500" type="line"/>
      <point x="342" y="1008" type="line"/>
      <point x="388" y="1500" type="line"/>
      <point x="700" y="1500" type="line"/>
      <point x="513" y="500" type="line"/>
    </contour>
    <contour>
      <point x="127" y="0" type="line"/>
      <point x="127" y="670" type="line"/>
      <point x="525" y="670" type="line"/>
      <point x="525" y="0" type="line"/>
    </contour>
  </outline>
</glyph>
<glyph name="Z" format="2">
  <advance width="604"/>
  <unicode hex="005A"/>
  <outline>
    <contour>
      <point x="600" y="0" type="line"/>
      <point x="14" y="0" type="line"/>
      <point x="9" y="279" type="line"/>
      <point x="168" y="1116" type="line"/>
      <point x="4" y="1116" type="line"/>
      <point x="4" y="1500" type="line"/>
      <point x="600" y="1500" type="line"/>
      <point x="600" y="1226" type="line"/>
      <point x="443" y="384" type="line"/>
      <point x="600" y="384" type="line"/>
    </contour>
  </outline>
</glyph>
<glyph name="backslash" format="2">
  <advance width="356"/>
  <unicode hex="005C"/>
  <outline>
    <contour>
      <point x="424" y="0" type="line"/>
      <point x="72" y="0" type="line"/>
      <point x="-68" y="1500" type="line"/>
      <point x="284" y="1500" type="line"/>
    </contour>
  </outline>
</glyph>
<glyph name="underscore" format="2">
  <advance width="884"/>
  <unicode hex="005F"/>
  <outline>
    <contour>
      <point x="884" y="-500" type="line"/>
      <point x="0" y="-500" type="line"/>
      <point x="0" y="-218" type="line"/>
      <point x="884" y="-218" type="line"/>
    </contour>
  </outline>
</glyph>
<glyph name="a" format="2">
  <advance width="671"/>
  <unicode hex="0061"/>
  <outline>
    <contour>
      <point x="52" y="821" type="line"/>
      <point x="86" y="883"/>
      <point x="232" y="994"/>
      <point x="371" y="994" type="qcurve" smooth="yes"/>
      <point x="506.0" y="994.0"/>
      <point x="665.0" y="860.0"/>
      <point x="665" y="733" type="qcurve" smooth="yes"/>
      <point x="665" y="0" type="line"/>
      <point x="348" y="0" type="line"/>
      <point x="348" y="699" type="line" smooth="yes"/>
      <point x="348.0" y="722.0"/>
      <point x="328" y="743"/>
      <point x="312" y="743" type="qcurve" smooth="yes"/>
      <point x="293" y="743"/>
      <point x="276" y="715"/>
      <point x="274" y="683" type="qcurve"/>
    </contour>
    <contour>
      <point x="411" y="97" type="line"/>
      <point x="384" y="53"/>
      <point x="286" y="-13"/>
      <point x="214" y="-13" type="qcurve" smooth="yes"/>
      <point x="123" y="-13"/>
      <point x="0" y="139"/>
      <point x="0" y="328" type="qcurve" smooth="yes"/>
      <point x="0" y="498"/>
      <point x="118" y="669"/>
      <point x="218" y="669" type="qcurve" smooth="yes"/>
      <point x="254" y="669"/>
      <point x="335" y="644"/>
      <point x="359" y="630" type="qcurve"/>
      <point x="359" y="498" type="line"/>
      <point x="351" y="501"/>
      <point x="340" y="502"/>
      <point x="333" y="502" type="qcurve" smooth="yes"/>
      <point x="325" y="502"/>
      <point x="317" y="486"/>
      <point x="317" y="329" type="qcurve" smooth="yes"/>
      <point x="317" y="186"/>
      <point x="321" y="151"/>
      <point x="336" y="151" type="qcurve" smooth="yes"/>
      <point x="352" y="151"/>
      <point x="375" y="160"/>
      <point x="387" y="168" type="qcurve"/>
    </contour>
  </outline>
</glyph>
<glyph name="b" format="2">
  <advance width="703"/>
  <unicode hex="0062"/>
  <outline>
    <contour>
      <point x="8" y="0" type="line"/>
      <point x="8" y="1500" type="line"/>
      <point x="349" y="1500" type="line"/>
      <point x="349" y="0" type="line"/>
    </contour>
    <contour>
      <point x="293" y="735.0" type="line" smooth="yes"/>
      <point x="293" y="857"/>
      <point x="418.0" y="992.0"/>
      <point x="479" y="992.0" type="qcurve" smooth="yes"/>
      <point x="500" y="992.0" type="line" smooth="yes"/>
      <point x="580.0" y="992.0"/>
      <point x="697" y="856"/>
      <point x="697.0" y="728.0" type="qcurve" smooth="yes"/>
      <point x="697.0" y="290.0" type="line" smooth="yes"/>
      <point x="697.0" y="132.0"/>
      <point x="567" y="-17.0"/>
      <point x="476" y="-17.0" type="qcurve" smooth="yes"/>
      <point x="462" y="-17.0" type="line" smooth="yes"/>
      <point x="391.0" y="-17"/>
      <point x="293" y="104"/>
      <point x="293" y="195.0" type="qcurve"/>
    </contour>
    <contour>
      <point x="349.0" y="723" type="qcurve" smooth="yes"/>
      <point x="349.0" y="261" type="line" smooth="yes"/>
      <point x="349" y="230"/>
      <point x="351.0" y="217.0"/>
      <point x="360.0" y="217.0" type="qcurve" smooth="yes"/>
      <point x="370" y="217.0" type="line" smooth="yes"/>
      <point x="377.0" y="217.0"/>
      <point x="377" y="238"/>
      <point x="377" y="261.0" type="qcurve" smooth="yes"/>
      <point x="377" y="730.0" type="line" smooth="yes"/>
      <point x="377.0" y="746.0"/>
      <point x="372" y="760.0"/>
      <point x="365" y="760.0" type="qcurve" smooth="yes"/>
      <point x="362" y="760.0" type="line" smooth="yes"/>
      <point x="354.0" y="760.0"/>
      <point x="349.0" y="746"/>
    </contour>
  </outline>
</glyph>
<glyph name="c" format="2">
  <advance width="623"/>
  <unicode hex="0063"/>
  <outline>
    <contour>
      <point x="623" y="411" type="line"/>
      <point x="623" y="289" type="line" smooth="yes"/>
      <point x="623" y="140"/>
      <point x="477" y="-15"/>
      <point x="331" y="-15" type="qcurve" smooth="yes"/>
      <point x="321" y="-15" type="line" smooth="yes"/>
      <point x="188" y="-15"/>
      <point x="6" y="131"/>
      <point x="6" y="339" type="qcurve" smooth="yes"/>
      <point x="6" y="688" type="line" smooth="yes"/>
      <point x="6" y="823"/>
      <point x="192" y="994"/>
      <point x="320" y="994" type="qcurve" smooth="yes"/>
      <point x="331" y="994" type="line" smooth="yes"/>
      <point x="459" y="994"/>
      <point x="617" y="845"/>
      <point x="618" y="707" type="qcurve" smooth="yes"/>
      <point x="620" y="532" type="line"/>
      <point x="342" y="532" type="line"/>
      <point x="342" y="725" type="line" smooth="yes"/>
      <point x="342" y="751"/>
      <point x="339" y="760"/>
      <point x="334" y="760" type="qcurve" smooth="yes"/>
      <point x="331" y="760" type="line" smooth="yes"/>
      <point x="325" y="760"/>
      <point x="321.0" y="751.0"/>
      <point x="321" y="726" type="qcurve" smooth="yes"/>
      <point x="321" y="245" type="line" smooth="yes"/>
      <point x="321" y="231"/>
      <point x="326" y="217"/>
      <point x="331" y="217" type="qcurve" smooth="yes"/>
      <point x="337" y="217" type="line" smooth="yes"/>
      <point x="342" y="217"/>
      <point x="346" y="228"/>
      <point x="346" y="262" type="qcurve" smooth="yes"/>
      <point x="346" y="413" type="line"/>
    </contour>
  </outline>
</glyph>
<glyph name="d" format="2">
  <advance width="703"/>
  <unicode hex="0064"/>
  <outline>
    <contour>
      <point x="695.0" y="0.0" type="line"/>
      <point x="354.0" y="0.0" type="line"/>
      <point x="354.0" y="1500.0" type="line"/>
      <point x="695.0" y="1500.0" type="line"/>
    </contour>
    <contour>
      <point x="410.0" y="735.0" type="qcurve" smooth="yes"/>
      <point x="410.0" y="195.0" type="line"/>
      <point x="410.0" y="104.0"/>
      <point x="312.0" y="-17.0"/>
      <point x="241.0" y="-17.0" type="qcurve" smooth="yes"/>
      <point x="227.0" y="-17.0" type="line" smooth="yes"/>
      <point x="136.0" y="-17.0"/>
      <point x="6.0" y="132.0"/>
      <point x="6.0" y="290.0" type="qcurve" smooth="yes"/>
      <point x="6.0" y="728.0" type="line" smooth="yes"/>
      <point x="6.0" y="856.0"/>
      <point x="123.0" y="992.0"/>
      <point x="203.0" y="992.0" type="qcurve" smooth="yes"/>
      <point x="224.0" y="992.0" type="line" smooth="yes"/>
      <point x="299.0" y="992.0"/>
      <point x="410.0" y="845.0"/>
    </contour>
    <contour>
      <point x="354.0" y="723.0" type="line" smooth="yes"/>
      <point x="354.0" y="746.0"/>
      <point x="349.0" y="760.0"/>
      <point x="341.0" y="760.0" type="qcurve" smooth="yes"/>
      <point x="338.0" y="760.0" type="line" smooth="yes"/>
      <point x="331.0" y="760.0"/>
      <point x="325.0" y="746.0"/>
      <point x="325.0" y="730.0" type="qcurve" smooth="yes"/>
      <point x="325.0" y="261.0" type="line" smooth="yes"/>
      <point x="325.0" y="238.0"/>
      <point x="326.0" y="217.0"/>
      <point x="333.0" y="217.0" type="qcurve" smooth="yes"/>
      <point x="343.0" y="217.0" type="line" smooth="yes"/>
      <point x="352.0" y="217.0"/>
      <point x="354.0" y="230.0"/>
      <point x="354.0" y="261.0" type="qcurve" smooth="yes"/>
    </contour>
  </outline>
</glyph>
<glyph name="e" format="2">
  <advance width="657"/>
  <unicode hex="0065"/>
  <outline>
    <contour>
      <point x="645" y="358" type="line"/>
      <point x="645" y="286" type="line" smooth="yes"/>
      <point x="645" y="138"/>
      <point x="480" y="-16"/>
      <point x="337" y="-16" type="qcurve" smooth="yes"/>
      <point x="333" y="-16" type="line" smooth="yes"/>
      <point x="183" y="-16"/>
      <point x="6" y="156"/>
      <point x="6" y="328" type="qcurve" smooth="yes"/>
      <point x="6" y="678" type="line" smooth="yes"/>
      <point x="6" y="824"/>
      <point x="193" y="994"/>
      <point x="328" y="994" type="qcurve" smooth="yes"/>
      <point x="336" y="994" type="line" smooth="yes"/>
      <point x="464" y="994"/>
      <point x="652" y="828"/>
      <point x="652" y="682" type="qcurve" smooth="yes"/>
      <point x="652" y="410" type="line"/>
      <point x="45" y="410" type="line"/>
      <point x="45" y="587" type="line"/>
      <point x="360" y="587" type="line"/>
      <point x="360" y="701" type="line" smooth="yes"/>
      <point x="360" y="741"/>
      <point x="356" y="765"/>
      <point x="344" y="765" type="qcurve" smooth="yes"/>
      <point x="338" y="765" type="line" smooth="yes"/>
      <point x="329" y="765"/>
      <point x="321" y="750"/>
      <point x="321" y="714" type="qcurve" smooth="yes"/>
      <point x="321" y="268" type="line" smooth="yes"/>
      <point x="321" y="241"/>
      <point x="325" y="217"/>
      <point x="335" y="217" type="qcurve" smooth="yes"/>
      <point x="340" y="217" type="line" smooth="yes"/>
      <point x="347" y="217"/>
      <point x="360" y="230"/>
      <point x="359" y="263" type="qcurve" smooth="yes"/>
      <point x="358" y="368" type="line"/>
    </contour>
  </outline>
</glyph>
<glyph name="f" format="2">
  <advance width="483"/>
  <unicode hex="0066"/>
  <outline>
    <contour>
      <point x="475" y="668" type="line"/>
      <point x="6" y="668" type="line"/>
      <point x="6" y="980" type="line"/>
      <point x="475" y="980" type="line"/>
    </contour>
    <contour>
      <point x="407" y="1195" type="qcurve" smooth="yes"/>
      <point x="407" y="0" type="line"/>
      <point x="59" y="0" type="line"/>
      <point x="59" y="1235" type="line" smooth="yes"/>
      <point x="59" y="1370"/>
      <point x="199" y="1523"/>
      <point x="317" y="1523" type="qcurve" smooth="yes"/>
      <point x="382" y="1523"/>
      <point x="491" y="1499"/>
      <point x="523" y="1485" type="qcurve"/>
      <point x="483" y="1222" type="line"/>
      <point x="471" y="1225"/>
      <point x="451" y="1228"/>
      <point x="439" y="1228" type="qcurve" smooth="yes"/>
      <point x="424" y="1228"/>
      <point x="407" y="1210"/>
    </contour>
  </outline>
</glyph>
<glyph name="g" format="2">
  <advance width="666"/>
  <unicode hex="0067"/>
  <outline>
    <contour>
      <point x="264" y="979.0" type="qcurve" smooth="yes"/>
      <point x="264" y="-33.0" type="line" smooth="yes"/>
      <point x="264.0" y="-80.0"/>
      <point x="216" y="-32.0"/>
      <point x="191" y="-32.0" type="qcurve" smooth="yes"/>
      <point x="141.0" y="-32.0" type="line" smooth="yes"/>
      <point x="75" y="-32"/>
      <point x="18" y="129.0"/>
      <point x="18.0" y="374.0" type="qcurve" smooth="yes"/>
      <point x="18.0" y="692.0" type="line" smooth="yes"/>
      <point x="18" y="847.0"/>
      <point x="82.0" y="992.0"/>
      <point x="142.0" y="992.0" type="qcurve" smooth="yes"/>
      <point x="187" y="992.0" type="line" smooth="yes"/>
      <point x="216" y="992.0"/>
      <point x="264" y="1053.0"/>
    </contour>
    <contour>
      <point x="279" y="728.0" type="line" smooth="yes"/>
      <point x="279" y="732.0"/>
      <point x="303" y="787.0"/>
      <point x="336" y="787.0" type="qcurve" smooth="yes"/>
      <point x="336" y="787.0" type="line" smooth="yes"/>
      <point x="367" y="787.0"/>
      <point x="355" y="789.0"/>
      <point x="355" y="760.0" type="qcurve" smooth="yes"/>
      <point x="355" y="247.0" type="line" smooth="yes"/>
      <point x="355.0" y="172.0"/>
      <point x="353" y="163.0"/>
      <point x="326" y="163.0" type="qcurve" smooth="yes"/>
      <point x="326" y="163.0" type="line" smooth="yes"/>
      <point x="280" y="163.0"/>
      <point x="279.0" y="176.0"/>
      <point x="279" y="251.0" type="qcurve" smooth="yes"/>
    </contour>
    <contour>
      <point x="-22" y="-281.0" type="line"/>
      <point x="-50" y="-279.0"/>
      <point x="1" y="-293"/>
      <point x="111" y="-293.0" type="qcurve" smooth="yes"/>
      <point x="235.0" y="-293.0"/>
      <point x="313.0" y="-127.0"/>
      <point x="313" y="43.0" type="qcurve" smooth="yes"/>
      <point x="313" y="1000.0" type="line"/>
      <point x="644" y="1000.0" type="line"/>
      <point x="644.0" y="103" type="line" smooth="yes"/>
      <point x="644.0" y="-211.0"/>
      <point x="361" y="-503.0"/>
      <point x="188" y="-503.0" type="qcurve" smooth="yes"/>
      <point x="51" y="-503.0"/>
      <point x="-57" y="-490.0"/>
      <point x="-56" y="-492.0" type="qcurve"/>
    </contour>
  </outline>
</glyph>
<glyph name="i" format="2">
  <advance width="194"/>
  <unicode hex="0069"/>
  <outline>
    <contour>
      <point x="-155" y="0" type="line"/>
      <point x="-155" y="980" type="line"/>
      <point x="182" y="980" type="line"/>
      <point x="182" y="0" type="line"/>
    </contour>
    <contour>
      <point x="15.0" y="1031" type="line" smooth="yes"/>
      <point x="103.0" y="1031"/>
      <point x="199.0" y="1129"/>
      <point x="199.0" y="1210" type="qcurve" smooth="yes"/>
      <point x="199.0" y="1220" type="line" smooth="yes"/>
      <point x="199.0" y="1300"/>
      <point x="104.0" y="1401"/>
      <point x="15.0" y="1401" type="qcurve" smooth="yes"/>
      <point x="11.0" y="1401" type="line" smooth="yes"/>
      <point x="-72.0" y="1401"/>
      <point x="-170.0" y="1300"/>
      <point x="-170.0" y="1220" type="qcurve" smooth="yes"/>
      <point x="-170.0" y="1210" type="line" smooth="yes"/>
      <point x="-170.0" y="1128"/>
      <point x="-74.0" y="1031"/>
      <point x="11.0" y="1031" type="qcurve" smooth="yes"/>
    </contour>
    <contour>
      <point x="178" y="685" type="line"/>
      <point x="348" y="665" type="line"/>
      <point x="348" y="960" type="line"/>
      <point x="178" y="980" type="line"/>
    </contour>
  </outline>
</glyph>
<glyph name="j" format="2">
  <advance width="355"/>
  <unicode hex="006A"/>
  <outline>
    <contour>
      <point x="347" y="-127" type="line" smooth="yes"/>
      <point x="347.0" y="-336.0"/>
      <point x="194" y="-500.0"/>
      <point x="60" y="-500" type="qcurve" smooth="yes"/>
      <point x="-20" y="-500"/>
      <point x="-82" y="-491"/>
      <point x="-103" y="-484" type="qcurve"/>
      <point x="-83" y="-216" type="line"/>
      <point x="-78" y="-220"/>
      <point x="-61" y="-231"/>
      <point x="-38" y="-231" type="qcurve" smooth="yes"/>
      <point x="-12" y="-231"/>
      <point x="14" y="-195.0"/>
      <point x="14" y="-109" type="qcurve" smooth="yes"/>
      <point x="14" y="980" type="line"/>
      <point x="347" y="980" type="line"/>
    </contour>
    <contour>
      <point x="186" y="1000" type="line" smooth="yes"/>
      <point x="274" y="1000"/>
      <point x="370" y="1098"/>
      <point x="370" y="1179" type="qcurve" smooth="yes"/>
      <point x="370" y="1189" type="line" smooth="yes"/>
      <point x="370" y="1269"/>
      <point x="275" y="1370"/>
      <point x="186" y="1370" type="qcurve" smooth="yes"/>
      <point x="182" y="1370" type="line" smooth="yes"/>
      <point x="99" y="1370"/>
      <point x="1" y="1269"/>
      <point x="1" y="1189" type="qcurve" smooth="yes"/>
      <point x="1" y="1179" type="line" smooth="yes"/>
      <point x="1" y="1097"/>
      <point x="97" y="1000"/>
      <point x="182" y="1000" type="qcurve" smooth="yes"/>
    </contour>
    <contour>
      <point x="200" y="685" type="line"/>
      <point x="57" y="665" type="line"/>
      <point x="57" y="960" type="line"/>
      <point x="200" y="980" type="line"/>
    </contour>
  </outline>
</glyph>
<glyph name="k" format="2">
  <advance width="848"/>
  <unicode hex="006B"/>
  <outline>
    <contour>
      <point x="28" y="0" type="line"/>
      <point x="28" y="1500" type="line"/>
      <point x="366" y="1500" type="line"/>
      <point x="366" y="0" type="line"/>
    </contour>
    <contour>
      <point x="588" y="541" type="line"/>
      <point x="366" y="288" type="line"/>
      <point x="366" y="609" type="line"/>
      <point x="406" y="744" type="line"/>
      <point x="490" y="980" type="line"/>
      <point x="826" y="980" type="line"/>
      <point x="636" y="563" type="line"/>
    </contour>
    <contour>
      <point x="580" y="729" type="line"/>
      <point x="847" y="0" type="line"/>
      <point x="496" y="0" type="line"/>
      <point x="327" y="556" type="line"/>
    </contour>
  </outline>
</glyph>
<glyph name="l" format="2">
  <advance width="357"/>
  <unicode hex="006C"/>
  <outline>
    <contour>
      <point x="8" y="182" type="qcurve" smooth="yes"/>
      <point x="8" y="1500" type="line"/>
      <point x="349" y="1500" type="line"/>
      <point x="349" y="0" type="line"/>
      <point x="106" y="0"/>
      <point x="8" y="86"/>
    </contour>
    <contour>
      <point x="175" y="39" type="line"/>
      <point x="110" y="29" type="line"/>
      <point x="80" y="254" type="line"/>
      <point x="175" y="264" type="line"/>
    </contour>
  </outline>
</glyph>
<glyph name="m" format="2">
  <advance width="1015"/>
  <unicode hex="006D"/>
  <outline>
    <contour>
      <point x="8" y="0" type="line"/>
      <point x="8" y="980" type="line"/>
      <point x="328" y="980" type="line"/>
      <point x="328" y="0" type="line"/>
    </contour>
    <contour>
      <point x="322" y="847" type="line"/>
      <point x="346" y="910"/>
      <point x="452" y="992"/>
      <point x="531" y="992" type="qcurve" smooth="yes"/>
      <point x="599" y="992"/>
      <point x="677.0" y="889.0"/>
      <point x="677" y="771" type="qcurve" smooth="yes"/>
      <point x="677" y="0" type="line"/>
      <point x="350" y="0" type="line"/>
      <point x="350" y="731" type="line" smooth="yes"/>
      <point x="350" y="737"/>
      <point x="347" y="743"/>
      <point x="343" y="743" type="qcurve" smooth="yes"/>
      <point x="337" y="743"/>
      <point x="329" y="731"/>
      <point x="327" y="718" type="qcurve"/>
    </contour>
    <contour>
      <point x="658" y="847" type="line"/>
      <point x="676" y="911"/>
      <point x="781" y="992"/>
      <point x="846" y="992" type="qcurve" smooth="yes"/>
      <point x="922" y="992"/>
      <point x="1009.0" y="914"/>
      <point x="1009" y="838" type="qcurve" smooth="yes"/>
      <point x="1009" y="0" type="line"/>
      <point x="699" y="0" type="line"/>
      <point x="699" y="711" type="line" smooth="yes"/>
      <point x="699" y="732"/>
      <point x="695" y="740"/>
      <point x="684" y="740" type="qcurve" smooth="yes"/>
      <point x="675" y="740"/>
      <point x="673" y="723"/>
      <point x="671" y="708" type="qcurve"/>
    </contour>
  </outline>
</glyph>
<glyph name="n" format="2">
  <advance width="686"/>
  <unicode hex="006E"/>
  <outline>
    <contour>
      <point x="8" y="0" type="line"/>
      <point x="8" y="980" type="line"/>
      <point x="330" y="980" type="line"/>
      <point x="330" y="0" type="line"/>
    </contour>
    <contour>
      <point x="322" y="846" type="line"/>
      <point x="347" y="910"/>
      <point x="452" y="992"/>
      <point x="521" y="992" type="qcurve" smooth="yes"/>
      <point x="591" y="992"/>
      <point x="680" y="913"/>
      <point x="680" y="837" type="qcurve" smooth="yes"/>
      <point x="680" y="0" type="line"/>
      <point x="352" y="0" type="line"/>
      <point x="352" y="730" type="line" smooth="yes"/>
      <point x="352" y="736"/>
      <point x="349" y="743"/>
      <point x="343" y="743" type="qcurve" smooth="yes"/>
      <point x="338" y="743"/>
      <point x="325" y="736"/>
      <point x="322" y="729" type="qcurve"/>
    </contour>
  </outline>
</glyph>
<glyph name="o" format="2">
  <advance width="671"/>
  <unicode hex="006F"/>
  <outline>
    <contour>
      <point x="331" y="-16" type="line" smooth="yes"/>
      <point x="179" y="-16"/>
      <point x="6" y="157.0"/>
      <point x="6" y="328" type="qcurve" smooth="yes"/>
      <point x="6" y="678" type="line" smooth="yes"/>
      <point x="6" y="825"/>
      <point x="193" y="994"/>
      <point x="329" y="994" type="qcurve" smooth="yes"/>
      <point x="332" y="994" type="line" smooth="yes"/>
      <point x="471" y="994"/>
      <point x="665" y="824"/>
      <point x="665" y="683" type="qcurve" smooth="yes"/>
      <point x="665" y="332" type="line" smooth="yes"/>
      <point x="665.0" y="153.0"/>
      <point x="484" y="-16"/>
      <point x="334" y="-16" type="qcurve" smooth="yes"/>
    </contour>
    <contour>
      <point x="336" y="217" type="line" smooth="yes"/>
      <point x="343.0" y="217.0"/>
      <point x="350.0" y="228.0"/>
      <point x="350" y="258" type="qcurve" smooth="yes"/>
      <point x="350" y="723" type="line" smooth="yes"/>
      <point x="350.0" y="749.0"/>
      <point x="343" y="760"/>
      <point x="337" y="760" type="qcurve" smooth="yes"/>
      <point x="335" y="760.0" type="line" smooth="yes"/>
      <point x="329.0" y="760.0"/>
      <point x="321.0" y="749.0"/>
      <point x="321" y="723" type="qcurve" smooth="yes"/>
      <point x="321" y="258" type="line" smooth="yes"/>
      <point x="321.0" y="228.0"/>
      <point x="328.0" y="217.0"/>
      <point x="335" y="217" type="qcurve" smooth="yes"/>
    </contour>
  </outline>
</glyph>
<glyph name="p" format="2">
  <advance width="703"/>
  <unicode hex="0070"/>
  <outline>
    <contour>
      <point x="8" y="-500" type="line"/>
      <point x="8" y="980" type="line"/>
      <point x="348" y="980" type="line"/>
      <point x="348" y="-500" type="line"/>
    </contour>
    <contour>
      <point x="293" y="729" type="line" smooth="yes"/>
      <point x="293.0" y="861"/>
      <point x="418" y="992"/>
      <point x="481" y="992" type="qcurve" smooth="yes"/>
      <point x="500" y="992" type="line" smooth="yes"/>
      <point x="581" y="992"/>
      <point x="697" y="856"/>
      <point x="697" y="727" type="qcurve" smooth="yes"/>
      <point x="697" y="290" type="line" smooth="yes"/>
      <point x="697" y="132"/>
      <point x="568" y="-17.0"/>
      <point x="475" y="-17" type="qcurve" smooth="yes"/>
      <point x="463" y="-17" type="line" smooth="yes"/>
      <point x="391.0" y="-17"/>
      <point x="293.0" y="104"/>
      <point x="293" y="195" type="qcurve" smooth="yes"/>
    </contour>
    <contour>
      <point x="349" y="723" type="qcurve" smooth="yes"/>
      <point x="349" y="259" type="line" smooth="yes"/>
      <point x="349" y="230"/>
      <point x="355" y="217"/>
      <point x="362" y="217" type="qcurve" smooth="yes"/>
      <point x="364" y="217" type="line" smooth="yes"/>
      <point x="372" y="217"/>
      <point x="377" y="228"/>
      <point x="377" y="259" type="qcurve" smooth="yes"/>
      <point x="377" y="730" type="line" smooth="yes"/>
      <point x="377" y="746"/>
      <point x="372" y="760"/>
      <point x="365" y="760" type="qcurve" smooth="yes"/>
      <point x="362" y="760" type="line" smooth="yes"/>
      <point x="353" y="760"/>
      <point x="349" y="746"/>
    </contour>
  </outline>
</glyph>
<glyph name="r" format="2">
  <advance width="504"/>
  <unicode hex="0072"/>
  <outline>
    <contour>
      <point x="8" y="0" type="line"/>
      <point x="8" y="979" type="line"/>
      <point x="354" y="979" type="line"/>
      <point x="354" y="0" type="line"/>
    </contour>
    <contour>
      <point x="292" y="711" type="line"/>
      <point x="313" y="855"/>
      <point x="398" y="982"/>
      <point x="444" y="982" type="qcurve" smooth="yes"/>
      <point x="476" y="982"/>
      <point x="498" y="979"/>
      <point x="502" y="976" type="qcurve"/>
      <point x="502" y="674" type="line"/>
      <point x="494" y="678"/>
      <point x="466" y="683"/>
      <point x="433" y="683" type="qcurve" smooth="yes"/>
      <point x="392" y="683"/>
      <point x="317" y="600"/>
      <point x="299" y="518" type="qcurve"/>
    </contour>
  </outline>
</glyph>
<glyph name="s" format="2">
  <advance width="655"/>
  <unicode hex="0073"/>
  <outline>
    <contour>
      <point x="359" y="277" type="line" smooth="yes"/>
      <point x="359" y="291"/>
      <point x="303" y="326"/>
      <point x="205" y="388" type="qcurve" smooth="yes"/>
      <point x="89" y="461"/>
      <point x="3" y="593.0"/>
      <point x="3" y="723" type="qcurve" smooth="yes"/>
      <point x="3" y="734" type="line" smooth="yes"/>
      <point x="3" y="840.0"/>
      <point x="185.0" y="993.0"/>
      <point x="325" y="993.0" type="qcurve" smooth="yes"/>
      <point x="332" y="993.0" type="line" smooth="yes"/>
      <point x="470" y="993.0"/>
      <point x="619.0" y="839.0"/>
      <point x="619" y="710" type="qcurve" smooth="yes"/>
      <point x="619" y="652" type="line"/>
      <point x="353" y="652" type="line"/>
      <point x="353" y="717" type="line" smooth="yes"/>
      <point x="353" y="740"/>
      <point x="346.0" y="761.0"/>
      <point x="334" y="761" type="qcurve" smooth="yes"/>
      <point x="331" y="761" type="line" smooth="yes"/>
      <point x="321" y="761.0"/>
      <point x="312" y="747"/>
      <point x="312.0" y="738" type="qcurve" smooth="yes"/>
      <point x="312.0" y="733" type="line" smooth="yes"/>
      <point x="312.0" y="711.0"/>
      <point x="347" y="671"/>
      <point x="450" y="611" type="qcurve" smooth="yes"/>
      <point x="545" y="556"/>
      <point x="651.0" y="417"/>
      <point x="651" y="312" type="qcurve" smooth="yes"/>
      <point x="651" y="287" type="line" smooth="yes"/>
      <point x="651" y="169"/>
      <point x="486" y="-17"/>
      <point x="342" y="-17" type="qcurve" smooth="yes"/>
      <point x="333" y="-17" type="line" smooth="yes"/>
      <point x="186.0" y="-17"/>
      <point x="6" y="127.0"/>
      <point x="6" y="277" type="qcurve" smooth="yes"/>
      <point x="6" y="336" type="line"/>
      <point x="312" y="338" type="line"/>
      <point x="312" y="275" type="line" smooth="yes"/>
      <point x="312" y="233"/>
      <point x="322" y="222"/>
      <point x="331" y="222" type="qcurve" smooth="yes"/>
      <point x="337" y="222" type="line" smooth="yes"/>
      <point x="347.0" y="222.0"/>
      <point x="359" y="233"/>
      <point x="359" y="241" type="qcurve" smooth="yes"/>
    </contour>
  </outline>
</glyph>
<glyph name="t" format="2">
  <advance width="454"/>
  <unicode hex="0074"/>
  <outline>
    <contour>
      <point x="432" y="738" type="line"/>
      <point x="0" y="738" type="line"/>
      <point x="0" y="980" type="line"/>
      <point x="432" y="980" type="line"/>
    </contour>
    <contour>
      <point x="350" y="366" type="line"/>
      <point x="350" y="339"/>
      <point x="372" y="318"/>
      <point x="394" y="318" type="qcurve" smooth="yes"/>
      <point x="404" y="318"/>
      <point x="426" y="321"/>
      <point x="443" y="325" type="qcurve"/>
      <point x="451" y="37" type="line"/>
      <point x="427" y="23"/>
      <point x="299" y="-8"/>
      <point x="239" y="-8" type="qcurve" smooth="yes"/>
      <point x="139" y="-8"/>
      <point x="22" y="120"/>
      <point x="22" y="217" type="qcurve" smooth="yes"/>
      <point x="23" y="1213" type="line"/>
      <point x="352" y="1213" type="line"/>
    </contour>
  </outline>
</glyph>
<glyph name="u" format="2">
  <advance width="686"/>
  <unicode hex="0075"/>
  <outline>
    <contour>
      <point x="678" y="980" type="line"/>
      <point x="678" y="0" type="line"/>
      <point x="356" y="0" type="line"/>
      <point x="356" y="980" type="line"/>
    </contour>
    <contour>
      <point x="364" y="134" type="line"/>
      <point x="339" y="70"/>
      <point x="234" y="-12"/>
      <point x="165" y="-12" type="qcurve" smooth="yes"/>
      <point x="95" y="-12"/>
      <point x="6" y="67"/>
      <point x="6" y="143" type="qcurve" smooth="yes"/>
      <point x="6" y="980" type="line"/>
      <point x="334" y="980" type="line"/>
      <point x="334" y="250" type="line" smooth="yes"/>
      <point x="334" y="244"/>
      <point x="337" y="237"/>
      <point x="343" y="237" type="qcurve" smooth="yes"/>
      <point x="348" y="237"/>
      <point x="361" y="244"/>
      <point x="364" y="251" type="qcurve"/>
    </contour>
  </outline>
</glyph>
<glyph name="v" format="2">
  <advance width="601"/>
  <unicode hex="0076"/>
  <outline>
    <contour>
      <point x="128" y="0" type="line"/>
      <point x="-30" y="980" type="line"/>
      <point x="303" y="980" type="line"/>
      <point x="326" y="509" type="line"/>
      <point x="346" y="980" type="line"/>
      <point x="631" y="980" type="line"/>
      <point x="486" y="0" type="line"/>
    </contour>
  </outline>
</glyph>
<glyph name="w" format="2">
  <advance width="867"/>
  <unicode hex="0077"/>
  <outline>
    <contour>
      <point x="89" y="0" type="line"/>
      <point x="-20" y="980" type="line"/>
      <point x="270" y="980" type="line"/>
      <point x="300" y="581" type="line"/>
      <point x="312" y="980" type="line"/>
      <point x="568" y="980" type="line"/>
      <point x="588" y="579" type="line"/>
      <point x="609" y="980" type="line"/>
      <point x="887" y="980" type="line"/>
      <point x="781" y="0" type="line"/>
      <point x="477" y="0" type="line"/>
      <point x="439" y="353" type="line"/>
      <point x="413" y="0" type="line"/>
    </contour>
  </outline>
</glyph>
<glyph name="x" format="2">
  <advance width="480"/>
  <unicode hex="0078"/>
  <outline>
    <contour>
      <point x="-50" y="0" type="line"/>
      <point x="238" y="980" type="line"/>
      <point x="500" y="980" type="line"/>
      <point x="211" y="0" type="line"/>
    </contour>
    <contour>
      <point x="232" y="0" type="line"/>
      <point x="-49" y="980" type="line"/>
      <point x="239" y="980" type="line"/>
      <point x="530" y="0" type="line"/>
    </contour>
  </outline>
</glyph>
<glyph name="y" format="2">
  <advance width="600"/>
  <unicode hex="0079"/>
  <outline>
    <contour>
      <point x="137" y="35" type="qcurve"/>
      <point x="-30" y="980" type="line"/>
      <point x="303" y="980" type="line"/>
      <point x="325" y="509" type="line"/>
      <point x="344" y="980" type="line"/>
      <point x="630" y="980" type="line"/>
      <point x="488" y="1" type="line" smooth="yes"/>
      <point x="452" y="-246"/>
      <point x="221" y="-500"/>
      <point x="65" y="-500" type="qcurve" smooth="yes"/>
      <point x="-7" y="-500"/>
      <point x="-72" y="-491"/>
      <point x="-95" y="-484" type="qcurve"/>
      <point x="-83" y="-182" type="line"/>
      <point x="-62" y="-187"/>
      <point x="0" y="-200"/>
      <point x="26" y="-200" type="qcurve" smooth="yes"/>
      <point x="75" y="-200"/>
      <point x="134" y="-108"/>
    </contour>
  </outline>
</glyph>
<glyph name="z" format="2">
  <advance width="523"/>
  <unicode hex="007A"/>
  <outline>
    <contour>
      <point x="519" y="0" type="line"/>
      <point x="9" y="0" type="line"/>
      <point x="4" y="195" type="line"/>
      <point x="145" y="718" type="line"/>
      <point x="7" y="718" type="line"/>
      <point x="7" y="980" type="line"/>
      <point x="499" y="980" type="line"/>
      <point x="499" y="791" type="line"/>
      <point x="353" y="257" type="line"/>
      <point x="519" y="257" type="line"/>
    </contour>
  </outline>
</glyph>
<glyph name="braceleft" format="2">
  <advance width="324"/>
  <unicode hex="007B"/>
  <outline>
    <contour>
      <point x="-72.0" y="482" type="line"/>
      <point x="18.0" y="481"/>
      <point x="36" y="413.0"/>
      <point x="36.0" y="368.0" type="qcurve" smooth="yes"/>
      <point x="36" y="334.0"/>
      <point x="2" y="275.0"/>
      <point x="-21" y="239.0" type="qcurve" smooth="yes"/>
      <point x="-45" y="203.0"/>
      <point x="-84.0" y="116.0"/>
      <point x="-84.0" y="-2.0" type="qcurve" smooth="yes"/>
      <point x="-84.0" y="-98.0"/>
      <point x="71.0" y="-295"/>
      <point x="219.0" y="-400" type="qcurve"/>
      <point x="375.0" y="-189" type="line"/>
      <point x="297.0" y="-108"/>
      <point x="205.0" y="-6.0"/>
      <point x="205.0" y="45.0" type="qcurve" smooth="yes"/>
      <point x="205" y="109.0"/>
      <point x="226" y="186.0"/>
      <point x="256" y="235.0" type="qcurve" smooth="yes"/>
      <point x="290" y="289.0"/>
      <point x="347" y="376.0"/>
      <point x="347.0" y="443.0" type="qcurve" smooth="yes"/>
      <point x="347" y="498.0"/>
      <point x="191" y="599.0"/>
      <point x="77" y="613.0" type="qcurve"/>
      <point x="205" y="634.0"/>
      <point x="352" y="736.0"/>
      <point x="352.0" y="778.0" type="qcurve" smooth="yes"/>
      <point x="352" y="830.0"/>
      <point x="299" y="910.0"/>
      <point x="261" y="950.0" type="qcurve" smooth="yes"/>
      <point x="224" y="990.0"/>
      <point x="190" y="1067"/>
      <point x="190" y="1123.0" type="qcurve" smooth="yes"/>
      <point x="190" y="1180.0"/>
      <point x="302" y="1321.0"/>
      <point x="388" y="1355.0" type="qcurve"/>
      <point x="247" y="1526" type="line"/>
      <point x="150" y="1501"/>
      <point x="-82" y="1332.0"/>
      <point x="-82.0" y="1252.0" type="qcurve" smooth="yes"/>
      <point x="-82" y="1149.0"/>
      <point x="-44" y="1047.0"/>
      <point x="-19" y="1005.0" type="qcurve" smooth="yes"/>
      <point x="6" y="963.0"/>
      <point x="40" y="894.0"/>
      <point x="40.0" y="857.0" type="qcurve" smooth="yes"/>
      <point x="40.0" y="809.0"/>
      <point x="20" y="737"/>
      <point x="-75" y="720" type="qcurve"/>
    </contour>
  </outline>
</glyph>
<glyph name="bar" format="2">
  <advance width="384"/>
  <unicode hex="007C"/>
  <outline>
    <contour>
      <point x="37" y="-500" type="line"/>
      <point x="37" y="1500" type="line"/>
      <point x="347" y="1500" type="line"/>
      <point x="347" y="-500" type="line"/>
    </contour>
  </outline>
</glyph>
<glyph name="asciitilde" format="2">
  <advance width="754"/>
  <unicode hex="007E"/>
  <outline>
    <contour>
      <point x="410" y="907.0" type="qcurve" smooth="yes"/>
      <point x="371" y="952.0"/>
      <point x="295" y="1002.0"/>
      <point x="227" y="1002.0" type="qcurve" smooth="yes"/>
      <point x="154" y="1002"/>
      <point x="2" y="811.0"/>
      <point x="-23" y="656.0" type="qcurve"/>
      <point x="82.0" y="557.0" type="line"/>
      <point x="100" y="631.0"/>
      <point x="170" y="705.0"/>
      <point x="224" y="705.0" type="qcurve"/>
      <point x="279.0" y="705.0"/>
      <point x="340" y="665.0"/>
      <point x="376" y="632.0" type="qcurve" smooth="yes"/>
      <point x="428" y="583.0"/>
      <point x="535" y="486.0"/>
      <point x="598" y="486.0" type="qcurve" smooth="yes"/>
      <point x="648" y="486.0"/>
      <point x="785" y="644.0"/>
      <point x="812" y="784.0" type="qcurve"/>
      <point x="711" y="908.0" type="line"/>
      <point x="687" y="844.0"/>
      <point x="613" y="789.0"/>
      <point x="575" y="789.0" type="qcurve" smooth="yes"/>
      <point x="538" y="789"/>
      <point x="441" y="872"/>
    </contour>
  </outline>
</glyph>
